<svg xmlns="http://www.w3.org/2000/svg" xmlns:xlink="http://www.w3.org/1999/xlink" width="44" height="44" viewBox="0 0 44 44"><defs><style>.a{fill:url(#a);}.b{fill:url(#b);}.c{fill:url(#c);}.d{fill:#d2695a;}.e{fill:#64696e;opacity:0.05;}.f{opacity:0.5;}.g{fill:url(#d);}.h{fill:url(#e);}.i{fill:url(#f);}.j{fill:#f4f6f8;}</style><linearGradient id="a" x1="1.004" y1="0.959" x2="-0.015" y2="0.031" gradientUnits="objectBoundingBox"><stop offset="0" stop-color="#d2695a"/><stop offset="1" stop-color="#efa794"/></linearGradient><linearGradient id="b" x1="1.004" y1="0.959" x2="-0.015" y2="0.031" gradientUnits="objectBoundingBox"><stop offset="0" stop-color="#efa794"/><stop offset="1" stop-color="#f6d6c8"/></linearGradient><linearGradient id="c" x1="0.783" y1="0.988" x2="0.26" y2="0.087" xlink:href="#a"/><linearGradient id="d" x1="2.31" y1="1.952" x2="0.251" y2="0.301" gradientUnits="objectBoundingBox"><stop offset="0" stop-color="#5a6774"/><stop offset="1" stop-color="#787e84"/></linearGradient><linearGradient id="e" x1="0.857" y1="1.205" x2="0.313" y2="0.133" xlink:href="#d"/><linearGradient id="f" x1="1.071" y1="1.515" x2="-0.163" y2="-0.762" gradientUnits="objectBoundingBox"><stop offset="0" stop-color="#efa794"/><stop offset="1" stop-color="#f4f6f8"/></linearGradient></defs><g transform="translate(0 0)"><circle class="a" cx="21.443" cy="21.443" r="21.443" transform="translate(1.113 1.113)"/><circle class="b" cx="21.443" cy="21.443" r="21.443"/><circle class="c" cx="18.36" cy="18.36" r="18.36" transform="translate(3.084 3.084)"/><path class="d" d="M27.815,9.455a18.3,18.3,0,0,1,12.448,4.859A18.36,18.36,0,1,0,14.314,40.263a18.36,18.36,0,0,1,13.5-30.808Z" transform="translate(-5.288 -5.288)"/><path class="e" d="M33.378,55.481A21.436,21.436,0,0,0,49.763,20.21L19.14,50.077a21.368,21.368,0,0,0,14.238,5.4Z" transform="translate(-11.942 -12.61)"/><g class="f" transform="translate(13.057 13.392)"><path class="g" d="M61.326,43.308a.523.523,0,0,0,.079.1l.872.872a.523.523,0,0,1-.079-.1l-4.408-7.593a.376.376,0,0,0-.079-.1l-.872-.876a.523.523,0,0,1,.079.1Z" transform="translate(-48.521 -35.61)"/><path class="h" d="M55.283,45.775h0a.32.32,0,0,0,0-.086h0a.787.787,0,0,0-.03-.086v-.038a.711.711,0,0,0-.075-.1h0l-.91-.9a.523.523,0,0,1,.079.1q0,.021,0,.041a.538.538,0,0,1,.03.083.582.582,0,0,1,0,.117.162.162,0,0,0,0,.019.557.557,0,0,1,0,.132L50.688,56.711a.561.561,0,0,1-.064.135.485.485,0,0,1-.154.135L50.428,57a.481.481,0,0,1-.207.053H35.066a.493.493,0,0,1-.346-.147l.857.869a.489.489,0,0,0,.346.143H51.105a.5.5,0,0,0,.2-.049l.064-.023a.5.5,0,0,0,.154-.139h0a.482.482,0,0,0,.041-.075l.023-.06L55.28,45.918h0a.444.444,0,0,0,0-.075V45.8S55.283,45.782,55.283,45.775Z" transform="translate(-34.72 -41.194)"/></g><path class="i" d="M36.44,35.23a.493.493,0,0,1,.425.244l4.408,7.6a.489.489,0,0,0,.425.244.5.5,0,0,0,.316-.113L47.35,38.69a.493.493,0,0,1,.778.542L44.439,50.889a.485.485,0,0,1-.466.346H28.813a.5.5,0,0,1-.47-.346L24.722,39.231a.493.493,0,0,1,.786-.527l5.321,4.5a.508.508,0,0,0,.316.113.481.481,0,0,0,.436-.244l4.449-7.6a.5.5,0,0,1,.41-.244Z" transform="translate(-15.41 -21.981)"/><path class="j" d="M42.375,43.793a.481.481,0,0,0,.425-.244l4.441-7.582a.478.478,0,0,1,.342-.222l-.154-.271A.493.493,0,0,0,47,35.23a.5.5,0,0,0-.429.244l-4.43,7.6a.481.481,0,0,1-.425.244.376.376,0,0,1-.09,0l.448.376A.508.508,0,0,0,42.375,43.793Z" transform="translate(-25.974 -21.981)"/><path class="j" d="M70.7,49.368a.489.489,0,0,0,.312-.113l5.329-4.486a.493.493,0,0,1,.165-.094.493.493,0,0,0-.809-.395l-5.336,4.513a.5.5,0,0,1-.229.1l.143.248a.489.489,0,0,0,.425.229Z" transform="translate(-43.756 -27.556)"/><path class="j" d="M25.88,44.645a.549.549,0,0,1,.083,0l-.455-.376a.493.493,0,0,0-.786.527l3.622,11.658a.5.5,0,0,0,.47.346h.173l-3.58-11.515a.5.5,0,0,1,.474-.639Z" transform="translate(-15.41 -27.549)"/></g></svg>